<svg width="27" height="26" viewBox="0 0 27 26" fill="none" xmlns="http://www.w3.org/2000/svg">
<g id="entypo-social:linkedin">
<path id="Vector" d="M6.74998 3.8998C6.74998 5.28041 5.79148 6.4686 4.04863 6.4686C2.40838 6.4686 1.34998 5.348 1.34998 3.9674C1.34998 2.5504 2.37598 1.2998 4.04998 1.2998C5.72398 1.2998 6.71758 2.4828 6.74998 3.8998ZM1.34998 24.6998V7.79981H6.74998V24.6998H1.34998ZM9.44998 13.577C9.44998 11.5685 9.38113 9.89021 9.31228 8.44071H14.1642L14.4045 10.6806H14.5071C15.1902 9.6263 16.8642 8.08061 19.6668 8.08061C23.085 8.08061 25.65 10.2841 25.65 15.0252V24.6998H20.25V15.7805C20.25 13.7083 19.4305 12.1275 17.55 12.1275C16.1163 12.1275 15.3981 13.2455 15.0214 14.1672C14.8837 14.4974 14.85 14.9576 14.85 15.4191V24.6998H9.44998V13.577Z" fill="white"/>
</g>
</svg>
