<svg width="27" height="26" viewBox="0 0 27 26" fill="none" xmlns="http://www.w3.org/2000/svg">
<g id="entypo-social:facebook">
<path id="Vector" d="M22.95 1.2998H4.04998C2.56498 1.2998 1.34998 2.4698 1.34998 3.8998V22.0998C1.34998 23.5311 2.56498 24.6998 4.04998 24.6998H13.5V15.5998H10.8V12.3823H13.5V9.7173C13.5 6.9041 15.1362 4.9281 18.5841 4.9281L21.0181 4.9307V8.3172H19.4022C18.0603 8.3172 17.55 9.287 17.55 10.1866V12.3836H21.0168L20.25 15.5998H17.55V24.6998H22.95C24.435 24.6998 25.65 23.5311 25.65 22.0998V3.8998C25.65 2.4698 24.435 1.2998 22.95 1.2998Z" fill="white"/>
</g>
</svg>
