<svg width="53" height="74" viewBox="0 0 53 74" fill="none" xmlns="http://www.w3.org/2000/svg">
<g id="Group">
<path id="Vector" d="M20.8126 7.81782L4.84354 33.5933C2.16856 37.911 3.49949 43.5792 7.81625 46.2536C12.133 48.928 17.8009 47.5959 20.4759 43.2782L36.4449 17.5027C39.1199 13.1851 37.789 7.51687 33.4722 4.84245C29.1555 2.16804 23.4875 3.50015 20.8126 7.81782Z" fill="white"/>
<path id="Vector_2" d="M35.326 32.3005C36.1191 31.0198 37.1676 29.9907 38.3554 29.2246H30.0951L20.5967 44.5575C19.8036 45.8381 18.7551 46.8673 17.5673 47.6333H25.8276L35.326 32.3005Z" fill="white"/>
<path id="Vector_3" d="M48.2136 30.5866C43.8958 27.9131 38.22 29.2595 35.5349 33.5928L19.4979 59.4803C16.8128 63.8174 18.136 69.4971 22.4499 72.1706C26.7677 74.8441 32.4436 73.4977 35.1286 69.1644L51.1657 43.2769C53.8508 38.9398 52.5276 33.2601 48.2136 30.5866ZM48.5347 41.679C46.7279 44.6001 42.8937 45.4977 39.9726 43.6909C37.0515 41.8841 36.1539 38.0499 37.9608 35.1288C39.7676 32.2077 43.6018 31.3101 46.5229 33.1169C49.444 34.9237 50.3416 38.7579 48.5347 41.679Z" fill="white"/>
</g>
</svg>
