<svg width="928" height="1309" viewBox="0 0 928 1309" fill="none" xmlns="http://www.w3.org/2000/svg">
<g clip-path="url(#clip0_551_67)">
<path d="M485.775 487.399L758.43 491.57" stroke="#00b3ff" stroke-width="2" stroke-miterlimit="10"/>
<path d="M444.773 818.588H188.565" stroke="#00b3ff" stroke-width="2" stroke-miterlimit="10"/>
<path d="M563.121 48.2415L562.924 48.1194C485.271 -0.0127512 383.321 23.9484 335.212 101.638L47.6535 566.007C-0.455696 643.696 23.4941 745.695 101.147 793.827L101.344 793.95C178.996 842.082 280.946 818.121 329.056 740.431L616.614 276.062C664.723 198.373 640.773 96.3737 563.121 48.2415Z" stroke="#00b3ff" stroke-width="2" stroke-miterlimit="10"/>
<path d="M826.693 515.376L826.496 515.254C748.843 467.122 646.893 491.083 598.784 568.773L311.226 1033.14C263.117 1110.83 287.066 1212.83 364.719 1260.96L364.916 1261.08C442.569 1309.22 544.519 1285.26 592.628 1207.57L880.186 743.197C928.295 665.507 904.346 563.508 826.693 515.376Z" stroke="#00b3ff" stroke-width="2" stroke-miterlimit="10"/>
<path d="M797.779 561.933C745.249 529.373 676.283 545.582 643.738 598.137C611.194 650.692 627.395 719.691 679.925 752.251C732.455 784.811 801.421 768.602 833.965 716.047C866.51 663.492 850.309 594.493 797.779 561.933Z" stroke="#00b3ff" stroke-width="2" stroke-miterlimit="10"/>
</g>
<defs>
<clipPath id="clip0_551_67">
<rect width="928" height="1309" fill="#00b3ff"/>
</clipPath>
</defs>
</svg>
