<svg width="255" height="67" viewBox="0 0 255 67" fill="none" xmlns="http://www.w3.org/2000/svg">
<g id="Group 96">
<g id="Group">
<path id="Vector" d="M39.7683 26.613H11.7161C7.01688 26.613 3.2074 30.3159 3.2074 34.8836C3.2074 39.4514 7.01688 43.1543 11.7161 43.1543H39.7683C44.4676 43.1543 48.2771 39.4514 48.2771 34.8836C48.2771 30.3159 44.4676 26.613 39.7683 26.613Z" fill="#10171F"/>
<path id="Vector_2" d="M19.2552 7.33862L4.48119 30.5234C2.0063 34.4073 3.23757 39.5059 7.23132 41.9115C11.2251 44.3172 16.4689 43.1189 18.9438 39.235L33.7178 16.0502C36.1927 12.1664 34.9614 7.06771 30.9677 4.66207C26.9739 2.25643 21.73 3.45477 19.2552 7.33862Z" fill="#0074FF"/>
<path id="Vector_3" d="M20.7717 65.2582C16.7765 62.8538 15.5563 57.7394 18.0375 53.8432L32.8757 30.5569C35.361 26.6567 40.6131 25.4465 44.6083 27.8509C48.6035 30.2554 49.8237 35.3697 47.3425 39.2659L32.5043 62.5522C30.019 66.4524 24.7669 67.6626 20.7717 65.2582Z" fill="#0074FF"/>
<path id="Vector_4" d="M43.044 30.1345C40.3435 28.5079 36.7981 29.3176 35.125 31.9432C33.4519 34.5688 34.2848 38.0159 36.9853 39.6425C39.6858 41.2692 43.2313 40.4594 44.9044 37.8338C46.5774 35.2083 45.7445 31.7612 43.044 30.1345Z" fill="white"/>
</g>
<g id="Group_2">
<path id="Vector_5" d="M58.3528 35.3499C58.3528 32.5804 58.3529 30.2951 58.3284 28.3787C58.3161 27.4026 59.1241 26.6012 60.1321 26.6012H65.572C66.5759 26.6012 67.388 27.3947 67.3758 28.3707C67.3513 30.2633 67.3513 32.5527 67.3513 35.3499V44.9596C67.3513 45.9277 68.1593 46.7133 69.155 46.7133H74.1174C74.5663 46.7133 74.9908 46.5546 75.3254 46.261C76.9945 44.785 78.786 43.194 80.5775 41.6426L87.5845 35.7228C87.9109 35.4451 88.3313 35.2943 88.7679 35.2943H99.011L99.0641 35.4015C95.0158 38.8494 88.6455 44.4239 83.6056 48.8598C82.8261 49.5422 82.8098 50.7167 83.5688 51.419C88.8087 56.2675 95.1423 62.8101 99.109 66.3731L98.9988 66.4802L89.2332 66.5001C88.7802 66.5001 88.3435 66.3334 88.0089 66.0359L79.9695 58.8187C78.4677 57.4498 77.0516 56.0849 75.7212 54.7558C75.3825 54.4185 74.9255 54.232 74.4398 54.232H69.155C68.1593 54.232 67.3513 55.0176 67.3513 55.9857V56.8983C67.3513 60.1796 67.3513 62.5919 67.3758 64.7305C67.388 65.7065 66.5759 66.5001 65.572 66.5001H60.128C59.1241 66.5001 58.3161 65.7065 58.3243 64.7305C58.3488 62.588 58.3488 60.1716 58.3488 56.8428V35.3459L58.3528 35.3499Z" fill="#10171F"/>
<path id="Vector_6" d="M113.049 28.339V30.5688C113.049 31.529 112.25 32.3067 111.262 32.3067H105.732C104.745 32.3067 103.945 31.529 103.945 30.5688V28.339C103.945 27.3788 104.745 26.6012 105.732 26.6012H111.262C112.25 26.6012 113.049 27.3788 113.049 28.339ZM103.986 43.9875C103.986 41.2141 103.986 38.9248 103.961 37.0044C103.949 36.0204 104.761 35.215 105.773 35.215H111.213C112.225 35.215 113.037 36.0204 113.025 37.0044C113 38.9089 113 41.1784 113 43.9835V56.8705C113 60.1597 113 62.5721 113.025 64.7146C113.037 65.6946 112.221 66.4961 111.213 66.4961H105.769C104.761 66.4961 103.945 65.6986 103.957 64.7146C103.982 62.5681 103.982 60.1478 103.982 56.815V43.9835L103.986 43.9875Z" fill="#10171F"/>
<path id="Vector_7" d="M131.426 65.4883C128.259 58.7354 121.905 45.4159 118.114 37.7067C117.547 36.5521 118.412 35.219 119.73 35.219H125.9C126.606 35.219 127.243 35.6197 127.533 36.2466L132.887 47.8401C134.315 50.9984 135.784 54.2836 137.102 57.3149C137.384 57.9577 138.029 58.3743 138.747 58.3743H140.29C141.004 58.3743 141.644 57.9736 141.93 57.3348C143.281 54.2995 144.709 51.0063 146.142 47.8401L151.496 36.2466C151.785 35.6197 152.422 35.219 153.128 35.219H158.89C160.213 35.219 161.078 36.56 160.502 37.7186C156.679 45.3802 150.361 58.3862 146.999 65.4963C146.705 66.1152 146.072 66.5041 145.374 66.5041H133.046C132.344 66.5041 131.711 66.1113 131.422 65.4923L131.426 65.4883Z" fill="#10171F"/>
<path id="Vector_8" d="M165.648 51.6491V50.1096C165.648 38.6074 169.66 35.219 185.926 35.219C202.193 35.219 206.205 38.6074 206.205 50.1096V51.6491C206.205 63.0998 202.193 66.4882 185.926 66.4882C169.66 66.4882 165.648 63.0998 165.648 51.6491ZM197.439 50.9825V50.7246C197.439 44.2573 195.749 42.5592 185.926 42.5592C176.104 42.5592 174.467 44.2534 174.467 50.7246V50.9825C174.467 57.4538 176.104 59.148 185.926 59.148C195.749 59.148 197.439 57.4538 197.439 50.9825Z" fill="#10171F"/>
<path id="Vector_9" d="M211.191 35.3499C211.191 32.5884 211.191 30.307 211.167 28.3946C211.155 27.4066 211.971 26.6012 212.987 26.6012H218.39C219.402 26.6012 220.222 27.4026 220.21 28.3866C220.186 30.2871 220.186 32.5487 220.186 35.3459V56.8943C220.186 60.1677 220.186 62.576 220.21 64.7107C220.222 65.6946 219.402 66.4961 218.39 66.4961H212.979C211.967 66.4961 211.147 65.6946 211.159 64.7107C211.183 62.5721 211.183 60.1597 211.183 56.8428V35.3459L211.191 35.3499Z" fill="#10171F"/>
<path id="Vector_10" d="M229.107 42.5512H226.923C225.928 42.5512 225.124 41.7656 225.124 40.8015V36.9488C225.124 35.9807 225.932 35.1991 226.927 35.1991C227.666 35.1991 228.405 35.1912 229.127 35.1872C230.115 35.1793 230.91 34.3937 230.906 33.4335C230.906 32.6796 230.898 31.9099 230.886 31.0886C230.874 30.1245 231.661 29.2436 232.653 29.2278H238.093C239.109 29.2079 239.937 29.9895 239.925 30.9775C239.917 31.7115 239.913 32.517 239.913 33.4176C239.913 34.3857 240.717 35.1793 241.713 35.1793H253.119C254.115 35.1793 254.918 35.9649 254.918 36.929V40.8054C254.918 41.7735 254.11 42.5552 253.119 42.5552H241.709C240.713 42.5552 239.909 43.3408 239.909 44.3049V52.5299C239.909 58.2632 241.382 59.0567 249.242 59.0567C250.842 59.0567 251.858 59.0329 253.049 58.9813C254.07 58.9377 254.923 59.7273 254.931 60.7192L254.959 64.5638C254.967 65.4923 254.225 66.2699 253.27 66.3255C251.527 66.4247 249.899 66.4842 248.364 66.4842C234.281 66.4842 230.845 64.3615 230.845 55.2874C230.845 52.7918 230.898 49.5541 230.898 45.8959V44.3049C230.898 43.3368 230.09 42.5552 229.098 42.5552L229.107 42.5512Z" fill="#10171F"/>
</g>
</g>
</svg>
