<svg width="1175" height="303" viewBox="0 0 1175 303" fill="none" xmlns="http://www.w3.org/2000/svg">
<g clip-path="url(#clip0_547_26)">
<path d="M170.633 111.404H39.7096C17.7786 111.404 0 129.191 0 151.132C0 173.074 17.7786 190.861 39.7096 190.861H170.633C192.564 190.861 210.342 173.074 210.342 151.132C210.342 129.191 192.564 111.404 170.633 111.404Z" fill="#10171F"/>
<path d="M74.9053 18.8243L5.95346 130.195C-5.5967 148.851 0.150027 173.342 18.7891 184.898C37.4283 196.454 61.9015 190.698 73.4517 172.042L142.403 60.671C153.954 42.0152 148.207 17.5239 129.568 5.96824C110.929 -5.58742 86.4555 0.168414 74.9053 18.8243Z" fill="#0074FF"/>
<path d="M81.9752 297.032C63.3316 285.48 57.6182 260.923 69.2287 242.199L138.474 130.344C150.068 111.604 174.575 105.787 193.219 117.355C211.863 128.907 217.576 153.464 205.965 172.188L136.72 284.043C125.126 302.783 100.619 308.6 81.9752 297.032Z" fill="#0074FF"/>
<path d="M185.921 128.295C173.317 120.481 156.769 124.371 148.961 136.984C141.152 149.596 145.039 166.155 157.643 173.969C170.247 181.783 186.795 177.893 194.603 165.281C202.412 152.668 198.524 136.109 185.921 128.295Z" fill="white"/>
<path d="M257.369 153.364C257.369 140.057 257.369 129.091 257.269 119.879C257.219 115.182 260.994 111.337 265.672 111.337H291.065C295.742 111.337 299.535 115.148 299.484 119.829C299.367 128.923 299.367 139.907 299.367 153.347V199.504C299.367 204.151 303.126 207.929 307.787 207.929H330.941C333.03 207.929 335.018 207.177 336.571 205.773C344.356 198.684 352.726 191.028 361.079 183.589L393.788 155.153C395.325 153.815 397.28 153.097 399.301 153.097H447.113L447.364 153.615C428.47 170.182 398.75 196.963 375.212 218.26C371.586 221.537 371.503 227.187 375.045 230.564C399.485 253.851 429.054 285.28 447.581 302.398L447.063 302.916L401.49 303C399.368 303 397.33 302.198 395.776 300.76L358.255 266.105C351.239 259.535 344.623 252.982 338.426 246.579C336.839 244.958 334.717 244.055 332.445 244.055H307.787C303.143 244.055 299.367 247.816 299.367 252.48V256.877C299.367 272.641 299.367 284.227 299.484 294.491C299.535 299.172 295.759 302.983 291.081 302.983H265.672C260.994 302.983 257.202 299.172 257.269 294.491C257.386 284.193 257.386 272.591 257.386 256.61V153.347L257.369 153.364Z" fill="#10171F"/>
<path d="M512.65 119.695V130.411C512.65 135.025 508.908 138.77 504.297 138.77H478.487C473.876 138.77 470.134 135.025 470.134 130.411V119.695C470.134 115.081 473.876 111.337 478.487 111.337H504.297C508.908 111.337 512.65 115.081 512.65 119.695ZM470.351 194.856C470.351 181.533 470.351 170.549 470.251 161.321C470.201 156.59 473.993 152.729 478.721 152.729H504.097C508.824 152.729 512.617 156.59 512.566 161.321C512.449 170.482 512.449 181.365 512.449 194.856V256.76C512.449 272.558 512.449 284.143 512.566 294.441C512.617 299.155 508.808 303 504.097 303H478.687C473.976 303 470.167 299.155 470.217 294.457C470.334 284.143 470.334 272.508 470.334 256.509V194.856H470.351Z" fill="#10171F"/>
<path d="M598.418 298.135C583.633 265.704 553.98 201.71 536.306 164.682C533.649 159.131 537.709 152.729 543.857 152.729H572.641C575.932 152.729 578.922 154.668 580.258 157.66L605.25 213.345C611.916 228.508 618.782 244.306 624.93 258.866C626.233 261.959 629.256 263.949 632.614 263.949H639.814C643.139 263.949 646.146 262.009 647.466 258.95C653.78 244.356 660.446 228.541 667.112 213.345L692.104 157.66C693.457 154.651 696.43 152.729 699.721 152.729H726.618C732.782 152.729 736.842 159.182 734.135 164.732C716.277 201.526 686.808 264.015 671.104 298.152C669.734 301.111 666.794 303 663.52 303H605.969C602.694 303 599.737 301.128 598.384 298.135H598.418Z" fill="#10171F"/>
<path d="M758.141 231.651V224.245C758.141 168.995 776.868 152.712 852.779 152.712C928.69 152.712 947.417 168.995 947.417 224.245V231.651C947.417 286.651 928.69 302.933 852.779 302.933C776.868 302.933 758.141 286.651 758.141 231.651ZM906.522 228.441V227.204C906.522 196.127 898.637 187.985 852.796 187.985C806.955 187.985 799.304 196.127 799.304 227.204V228.441C799.304 259.518 806.939 267.66 852.796 267.66C898.653 267.66 906.522 259.518 906.522 228.441Z" fill="#10171F"/>
<path d="M970.689 153.364C970.689 140.107 970.689 129.141 970.589 119.963C970.539 115.232 974.347 111.354 979.075 111.354H1004.3C1009.03 111.354 1012.85 115.215 1012.79 119.929C1012.67 129.057 1012.67 139.907 1012.67 153.364V256.877C1012.67 272.608 1012.67 284.16 1012.79 294.424C1012.84 299.155 1009.03 303 1004.3 303H979.042C974.314 303 970.505 299.155 970.555 294.424C970.672 284.16 970.672 272.558 970.672 256.626V153.364H970.689Z" fill="#10171F"/>
<path d="M1054.3 187.969H1044.11C1039.47 187.969 1035.71 184.207 1035.71 179.56V161.054C1035.71 156.406 1039.48 152.645 1044.13 152.645C1047.57 152.645 1051.03 152.612 1054.38 152.578C1059 152.528 1062.7 148.783 1062.7 144.153C1062.7 140.525 1062.67 136.831 1062.62 132.902C1062.55 128.271 1066.25 124.042 1070.87 123.958H1096.27C1101.01 123.858 1104.87 127.619 1104.82 132.35C1104.79 135.878 1104.77 139.756 1104.75 144.069C1104.75 148.717 1108.51 152.528 1113.16 152.528H1166.4C1171.04 152.528 1174.8 156.289 1174.8 160.937V179.543C1174.8 184.191 1171.04 187.952 1166.4 187.952H1113.16C1108.51 187.952 1104.75 191.713 1104.75 196.361V235.88C1104.75 263.414 1111.64 267.242 1148.32 267.242C1155.79 267.242 1160.53 267.125 1166.1 266.891C1170.86 266.69 1174.85 270.468 1174.88 275.233L1175.02 293.705C1175.05 298.169 1171.59 301.897 1167.13 302.164C1159 302.632 1151.4 302.933 1144.24 302.933C1078.52 302.933 1062.47 292.736 1062.47 249.137C1062.47 237.151 1062.72 221.604 1062.72 204.017V196.377C1062.72 191.73 1058.96 187.969 1054.32 187.969H1054.3Z" fill="#10171F"/>
</g>
<defs>
<clipPath id="clip0_547_26">
<rect width="1175" height="303" fill="white"/>
</clipPath>
</defs>
</svg>
