<svg width="1179" height="303" viewBox="0 0 1179 303" fill="none" xmlns="http://www.w3.org/2000/svg">
<g clip-path="url(#clip0_547_14)">
<path d="M75.1604 18.8243L5.97387 130.195C-5.61561 148.851 0.150683 173.342 18.8533 184.898C37.5558 196.454 62.1124 190.698 73.7019 172.042L142.888 60.671C154.478 42.0152 148.712 17.5239 130.009 5.96825C111.306 -5.58742 86.7499 0.168417 75.1604 18.8243Z" fill="white"/>
<path d="M138.041 124.61C141.477 119.077 146.02 114.63 151.166 111.32H115.378L74.2252 177.571C70.7889 183.104 66.2462 187.551 61.1001 190.861H96.8883L138.041 124.61Z" fill="white"/>
<path d="M193.877 117.205C175.17 105.653 150.579 111.471 138.945 130.194L69.4643 242.049C57.831 260.789 63.5639 285.33 82.2542 296.881C100.961 308.433 125.552 302.616 137.185 283.892L206.666 172.037C218.3 153.297 212.567 128.756 193.877 117.205ZM195.268 165.133C187.44 177.754 170.828 181.633 158.172 173.826C145.516 166.019 141.627 149.452 149.456 136.831C157.284 124.209 173.896 120.331 186.551 128.138C199.207 135.945 203.096 152.511 195.268 165.133Z" fill="white"/>
<path d="M258.245 153.364C258.245 140.057 258.245 129.091 258.144 119.879C258.094 115.182 261.882 111.337 266.576 111.337H292.055C296.749 111.337 300.554 115.148 300.504 119.829C300.386 128.923 300.386 139.907 300.386 153.347V199.504C300.386 204.151 304.158 207.929 308.835 207.929H332.068C334.163 207.929 336.158 207.177 337.717 205.773C345.528 198.684 353.926 191.028 362.307 183.589L395.129 155.153C396.671 153.815 398.632 153.097 400.66 153.097H448.635L448.886 153.615C429.928 170.182 400.107 196.963 376.489 218.26C372.851 221.537 372.767 227.187 376.321 230.564C400.845 253.851 430.515 285.28 449.104 302.398L448.585 302.916L402.856 303C400.727 303 398.682 302.198 397.123 300.76L359.475 266.105C352.434 259.535 345.796 252.982 339.577 246.579C337.985 244.958 335.856 244.055 333.576 244.055H308.835C304.175 244.055 300.386 247.816 300.386 252.48V256.877C300.386 272.641 300.386 284.227 300.504 294.491C300.554 299.172 296.766 302.983 292.072 302.983H266.576C261.882 302.983 258.077 299.172 258.144 294.491C258.262 284.193 258.262 272.591 258.262 256.61V153.347L258.245 153.364Z" fill="white"/>
<path d="M514.395 119.695V130.411C514.395 135.025 510.64 138.77 506.013 138.77H480.115C475.489 138.77 471.734 135.025 471.734 130.411V119.695C471.734 115.081 475.489 111.337 480.115 111.337H506.013C510.64 111.337 514.395 115.081 514.395 119.695ZM471.952 194.856C471.952 181.533 471.952 170.549 471.851 161.321C471.801 156.59 475.606 152.729 480.35 152.729H505.812C510.556 152.729 514.361 156.59 514.311 161.321C514.194 170.482 514.194 181.365 514.194 194.856V256.76C514.194 272.558 514.194 284.143 514.311 294.441C514.361 299.155 510.539 303 505.812 303H480.316C475.589 303 471.767 299.155 471.818 294.457C471.935 284.143 471.935 272.508 471.935 256.509V194.856H471.952Z" fill="white"/>
<path d="M600.454 298.135C585.619 265.704 555.865 201.71 538.131 164.682C535.465 159.131 539.539 152.729 545.707 152.729H574.589C577.892 152.729 580.892 154.668 582.233 157.66L607.31 213.345C613.998 228.508 620.888 244.306 627.056 258.866C628.364 261.959 631.398 263.949 634.767 263.949H641.992C645.328 263.949 648.345 262.009 649.669 258.95C656.005 244.356 662.694 228.541 669.382 213.345L694.459 157.66C695.817 154.651 698.8 152.729 702.103 152.729H729.091C735.276 152.729 739.349 159.182 736.634 164.732C718.715 201.526 689.145 264.015 673.388 298.152C672.014 301.111 669.064 303 665.778 303H608.031C604.745 303 601.778 301.128 600.421 298.135H600.454Z" fill="white"/>
<path d="M760.722 231.651V224.245C760.722 168.995 779.513 152.712 855.682 152.712C931.851 152.712 950.642 168.995 950.642 224.245V231.651C950.642 286.651 931.851 302.933 855.682 302.933C779.513 302.933 760.722 286.651 760.722 231.651ZM909.607 228.441V227.204C909.607 196.127 901.695 187.985 855.699 187.985C809.702 187.985 802.025 196.127 802.025 227.204V228.441C802.025 259.518 809.685 267.66 855.699 267.66C901.712 267.66 909.607 259.518 909.607 228.441Z" fill="white"/>
<path d="M973.993 153.364C973.993 140.107 973.993 129.141 973.892 119.963C973.842 115.232 977.664 111.354 982.408 111.354H1007.72C1012.46 111.354 1016.3 115.215 1016.23 119.929C1016.12 129.057 1016.12 139.907 1016.12 153.364V256.877C1016.12 272.608 1016.12 284.16 1016.23 294.424C1016.29 299.155 1012.46 303 1007.72 303H982.374C977.631 303 973.809 299.155 973.859 294.424C973.976 284.16 973.976 272.558 973.976 256.626V153.364H973.993Z" fill="white"/>
<path d="M1057.89 187.969H1047.66C1043 187.969 1039.23 184.207 1039.23 179.56V161.054C1039.23 156.407 1043.02 152.645 1047.68 152.645C1051.13 152.645 1054.6 152.612 1057.97 152.578C1062.6 152.528 1066.32 148.783 1066.32 144.153C1066.32 140.525 1066.29 136.831 1066.24 132.902C1066.17 128.271 1069.88 124.042 1074.52 123.958H1100C1104.76 123.858 1108.63 127.619 1108.58 132.35C1108.55 135.878 1108.53 139.756 1108.51 144.069C1108.51 148.717 1112.28 152.528 1116.94 152.528H1170.37C1175.03 152.528 1178.8 156.289 1178.8 160.937V179.543C1178.8 184.191 1175.03 187.952 1170.37 187.952H1116.94C1112.28 187.952 1108.51 191.713 1108.51 196.361V235.88C1108.51 263.414 1115.42 267.242 1152.23 267.242C1159.72 267.242 1164.48 267.125 1170.07 266.891C1174.84 266.69 1178.85 270.468 1178.88 275.233L1179.02 293.705C1179.05 298.169 1175.58 301.897 1171.1 302.164C1162.94 302.632 1155.31 302.933 1148.14 302.933C1082.2 302.933 1066.09 292.736 1066.09 249.137C1066.09 237.151 1066.34 221.604 1066.34 204.017V196.377C1066.34 191.73 1062.57 187.969 1057.91 187.969H1057.89Z" fill="white"/>
</g>
<defs>
<clipPath id="clip0_547_14">
<rect width="1179" height="303" fill="white"/>
</clipPath>
</defs>
</svg>
